<svg width="460" height="394" viewBox="0 0 460 394" fill="none" xmlns="http://www.w3.org/2000/svg">
<path d="M228.685 321.247C311.986 321.247 379.541 254.207 379.541 171.476C379.541 88.7455 311.986 21.7059 228.685 21.7059C145.385 21.7059 77.8294 88.7455 77.8294 171.476C77.8294 254.207 145.385 321.247 228.685 321.247Z" fill="black" stroke="black" stroke-width="4.34118"/>
<rect x="249.989" y="79.3798" width="69.0837" height="69.0837" rx="29.1752" fill="white" stroke="black" stroke-width="6.04939"/>
<rect x="137.289" y="79.3798" width="69.0837" height="69.0837" rx="29.1752" fill="white" stroke="black" stroke-width="6.04939"/>
<rect x="217.448" y="21.347" width="21.4666" height="42.9332" fill="white"/>
<rect x="192.627" y="161.551" width="71.1081" height="71.1081" rx="30.1874" fill="white" stroke="black" stroke-width="4.02499"/>
<rect x="154.39" y="46.8386" width="146.241" height="146.241" rx="42.9332" fill="white" stroke="black" stroke-width="5.36665"/>
<rect x="168.477" y="78.3676" width="118.066" height="87.2081" rx="23.4791" fill="black" stroke="black" stroke-width="4.02499"/>
<path d="M190.615 205.826H264.406C287.747 205.826 306.668 224.747 306.668 248.088V266.2C306.668 299.545 279.638 326.575 246.294 326.575H208.727C175.383 326.575 148.352 299.545 148.352 266.2V248.088C148.352 224.747 167.274 205.826 190.615 205.826Z" fill="white" stroke="black" stroke-width="6.70831"/>
<rect x="212.919" y="2.68333" width="29.3628" height="29.3628" rx="14.6814" fill="white" stroke="black" stroke-width="5.36665"/>
<path d="M213.41 223.938H213.338L213.381 223.967L213.41 223.938Z" fill="#FF8AE2"/>
<path d="M250.728 298.706L245.395 293.372V285.358V245.3V234.619V231.952L237.381 223.938L229.366 231.952L234.7 237.286V250.577L221.422 263.869V245.3V231.952L213.408 223.938L213.38 223.966L213.337 223.938L197.323 239.967L200.06 242.69L208.06 234.69L210.741 237.356V304.054L216.075 309.401L221.422 304.054V275.368L234.7 262.091V285.358V298.706L245.395 309.401L250.728 304.054L253.395 301.387L258.743 296.039L256.076 293.372L250.728 298.706Z" fill="black"/>
<path d="M216.54 235.452H215.468V299.256H216.54V235.452Z" fill="white"/>
<path d="M240.141 235.452H239.069V299.256H240.141V235.452Z" fill="white"/>
<path d="M216.498 274.832L215.68 273.957L239.878 249.759V251.106L216.498 274.832Z" fill="white"/>
<circle cx="197.323" cy="113.922" r="10.7333" fill="white"/>
<circle cx="256.356" cy="113.922" r="10.7333" fill="white"/>
<path d="M212.406 141.088V141.088C220.797 149.48 234.403 149.48 242.794 141.088V141.088" stroke="white" stroke-width="6.51176" stroke-linecap="round" stroke-linejoin="round"/>
<path d="M353.494 180.159H310.082C308.884 180.159 307.912 181.131 307.912 182.329V211.269C307.912 212.468 308.884 213.44 310.082 213.44H335.565C336.763 213.44 337.735 214.411 337.735 215.61V221.525C337.735 223.598 340.364 224.491 341.627 222.847L348.204 214.288C348.615 213.753 349.251 213.44 349.926 213.44H353.494C354.693 213.44 355.665 212.468 355.665 211.269V182.329C355.665 181.131 354.693 180.159 353.494 180.159Z" fill="white"/>
<path d="M97.3647 154.112H136.435C137.634 154.112 138.606 155.084 138.606 156.282V180.684C138.606 181.883 137.634 182.854 136.435 182.854H113.664C112.465 182.854 111.494 183.826 111.494 185.025V189.218C111.494 191.264 108.922 192.174 107.635 190.583L102.035 183.66C101.623 183.15 101.003 182.854 100.348 182.854H97.3647C96.1659 182.854 95.1941 181.883 95.1941 180.684V156.282C95.1941 155.084 96.1659 154.112 97.3647 154.112Z" fill="white"/>
<path d="M0.217651 350.065H7.07285V366H7.19312C8.03499 364.597 9.27774 363.434 10.9214 362.512C12.6051 361.55 14.4693 361.069 16.5138 361.069C19.9213 361.069 22.6073 361.951 24.5717 363.715C26.536 365.479 27.5182 368.125 27.5182 371.653V393H20.663V373.457C20.5828 371.011 20.0617 369.247 19.0995 368.165C18.1374 367.042 16.6341 366.481 14.5895 366.481C13.4269 366.481 12.3846 366.702 11.4626 367.143C10.5405 367.544 9.75881 368.125 9.11738 368.887C8.47596 369.608 7.97485 370.47 7.61405 371.472C7.25325 372.474 7.07285 373.537 7.07285 374.659V393H0.217651V350.065Z" fill="black"/>
<path d="M58.3797 386.085C58.3797 386.927 58.48 387.528 58.6804 387.889C58.9209 388.249 59.3619 388.43 60.0033 388.43C60.2038 388.43 60.4443 388.43 60.7249 388.43C61.0056 388.43 61.3263 388.39 61.6871 388.31V393.06C61.4465 393.14 61.1258 393.22 60.7249 393.301C60.3641 393.421 59.9833 393.521 59.5824 393.601C59.1815 393.682 58.7806 393.742 58.3797 393.782C57.9788 393.822 57.6381 393.842 57.3575 393.842C55.9544 393.842 54.7918 393.561 53.8697 393C52.9477 392.439 52.3464 391.457 52.0657 390.053C50.7027 391.376 49.019 392.339 47.0145 392.94C45.0502 393.541 43.146 393.842 41.3019 393.842C39.8988 393.842 38.5558 393.641 37.2729 393.241C35.9901 392.88 34.8476 392.339 33.8453 391.617C32.8832 390.855 32.1015 389.913 31.5001 388.791C30.9389 387.628 30.6583 386.285 30.6583 384.762C30.6583 382.837 30.999 381.274 31.6805 380.071C32.4021 378.869 33.3242 377.927 34.4467 377.245C35.6092 376.564 36.8921 376.082 38.2952 375.802C39.7384 375.481 41.1816 375.241 42.6248 375.08C43.8676 374.84 45.0502 374.679 46.1727 374.599C47.2952 374.479 48.2773 374.299 49.1192 374.058C50.0012 373.817 50.6827 373.457 51.1637 372.976C51.6849 372.454 51.9455 371.693 51.9455 370.691C51.9455 369.809 51.725 369.087 51.284 368.526C50.8831 367.964 50.362 367.544 49.7205 367.263C49.1192 366.942 48.4377 366.742 47.676 366.662C46.9143 366.541 46.1927 366.481 45.5112 366.481C43.5869 366.481 42.0034 366.882 40.7607 367.684C39.5179 368.486 38.8164 369.728 38.656 371.412H31.8008C31.9211 369.408 32.4021 367.744 33.244 366.421C34.0859 365.098 35.1482 364.036 36.4311 363.234C37.754 362.432 39.2373 361.871 40.8809 361.55C42.5246 361.23 44.2083 361.069 45.9321 361.069C47.4555 361.069 48.9588 361.23 50.4421 361.55C51.9254 361.871 53.2484 362.392 54.4109 363.114C55.6136 363.835 56.5757 364.777 57.2973 365.94C58.0189 367.062 58.3797 368.446 58.3797 370.089V386.085ZM51.5245 377.425C50.4822 378.107 49.1994 378.528 47.676 378.688C46.1526 378.809 44.6293 379.009 43.1059 379.29C42.3843 379.41 41.6827 379.59 41.0012 379.831C40.3197 380.031 39.7184 380.332 39.1972 380.733C38.676 381.094 38.2551 381.595 37.9344 382.236C37.6538 382.837 37.5135 383.579 37.5135 384.461C37.5135 385.223 37.734 385.864 38.1749 386.385C38.6159 386.906 39.1371 387.327 39.7384 387.648C40.3798 387.929 41.0613 388.129 41.7829 388.249C42.5446 388.37 43.2261 388.43 43.8275 388.43C44.5892 388.43 45.411 388.33 46.2929 388.129C47.1749 387.929 47.9967 387.588 48.7584 387.107C49.5602 386.626 50.2216 386.025 50.7428 385.303C51.264 384.541 51.5245 383.619 51.5245 382.537V377.425Z" fill="black"/>
<path d="M84.3371 372.314C84.0565 370.39 83.2748 368.947 81.9919 367.985C80.7492 366.982 79.1657 366.481 77.2414 366.481C76.3594 366.481 75.4174 366.642 74.4151 366.962C73.4129 367.243 72.4909 367.804 71.649 368.646C70.8071 369.448 70.1056 370.59 69.5443 372.074C68.9831 373.517 68.7025 375.421 68.7025 377.786C68.7025 379.069 68.8428 380.352 69.1234 381.635C69.4441 382.918 69.9252 384.06 70.5666 385.062C71.2481 386.065 72.11 386.886 73.1523 387.528C74.1946 388.129 75.4574 388.43 76.9407 388.43C78.9452 388.43 80.5888 387.808 81.8717 386.566C83.1946 385.323 84.0164 383.579 84.3371 381.334H91.1923C90.5509 385.383 89.0075 388.49 86.5621 390.655C84.1567 392.78 80.9496 393.842 76.9407 393.842C74.4953 393.842 72.3305 393.441 70.4463 392.639C68.6022 391.797 67.0388 390.675 65.7559 389.272C64.4731 387.829 63.4909 386.125 62.8094 384.16C62.168 382.196 61.8473 380.071 61.8473 377.786C61.8473 375.461 62.168 373.276 62.8094 371.232C63.4508 369.187 64.413 367.423 65.6958 365.94C66.9786 364.417 68.5622 363.234 70.4463 362.392C72.3706 361.51 74.6156 361.069 77.1813 361.069C78.9853 361.069 80.689 361.31 82.2926 361.791C83.9362 362.232 85.3794 362.913 86.6222 363.835C87.905 364.757 88.9474 365.92 89.7491 367.323C90.5509 368.726 91.032 370.39 91.1923 372.314H84.3371Z" fill="black"/>
<path d="M94.5396 350.065H101.395V374.479L113.782 361.911H122.201L110.295 373.336L123.343 393H114.985L105.484 377.907L101.395 381.875V393H94.5396V350.065Z" fill="black"/>
<path d="M121.125 361.911H126.297V352.59H133.152V361.911H139.346V367.022H133.152V383.619C133.152 384.341 133.172 384.962 133.212 385.483C133.292 386.004 133.432 386.445 133.633 386.806C133.873 387.167 134.214 387.448 134.655 387.648C135.096 387.808 135.697 387.889 136.459 387.889C136.94 387.889 137.421 387.889 137.902 387.889C138.383 387.849 138.864 387.768 139.346 387.648V392.94C138.584 393.02 137.842 393.1 137.121 393.18C136.399 393.261 135.657 393.301 134.896 393.301C133.092 393.301 131.628 393.14 130.506 392.82C129.424 392.459 128.562 391.958 127.92 391.316C127.319 390.635 126.898 389.793 126.657 388.791C126.457 387.788 126.337 386.646 126.297 385.363V367.022H121.125V361.911Z" fill="black"/>
<path d="M156.123 393.842C153.638 393.842 151.413 393.441 149.448 392.639C147.524 391.797 145.88 390.655 144.517 389.212C143.195 387.768 142.172 386.045 141.451 384.04C140.769 382.036 140.428 379.831 140.428 377.425C140.428 375.06 140.769 372.875 141.451 370.871C142.172 368.866 143.195 367.143 144.517 365.699C145.88 364.256 147.524 363.134 149.448 362.332C151.413 361.49 153.638 361.069 156.123 361.069C158.609 361.069 160.814 361.49 162.738 362.332C164.702 363.134 166.346 364.256 167.669 365.699C169.032 367.143 170.054 368.866 170.736 370.871C171.457 372.875 171.818 375.06 171.818 377.425C171.818 379.831 171.457 382.036 170.736 384.04C170.054 386.045 169.032 387.768 167.669 389.212C166.346 390.655 164.702 391.797 162.738 392.639C160.814 393.441 158.609 393.842 156.123 393.842ZM156.123 388.43C157.647 388.43 158.969 388.109 160.092 387.468C161.214 386.826 162.137 385.984 162.858 384.942C163.58 383.9 164.101 382.737 164.422 381.454C164.782 380.131 164.963 378.788 164.963 377.425C164.963 376.103 164.782 374.78 164.422 373.457C164.101 372.134 163.58 370.971 162.858 369.969C162.137 368.927 161.214 368.085 160.092 367.443C158.969 366.802 157.647 366.481 156.123 366.481C154.6 366.481 153.277 366.802 152.154 367.443C151.032 368.085 150.11 368.927 149.388 369.969C148.667 370.971 148.125 372.134 147.765 373.457C147.444 374.78 147.284 376.103 147.284 377.425C147.284 378.788 147.444 380.131 147.765 381.454C148.125 382.737 148.667 383.9 149.388 384.942C150.11 385.984 151.032 386.826 152.154 387.468C153.277 388.109 154.6 388.43 156.123 388.43Z" fill="black"/>
<path d="M175.292 350.065H182.147V365.94H182.268C182.749 365.178 183.33 364.497 184.011 363.895C184.693 363.294 185.435 362.793 186.236 362.392C187.078 361.951 187.94 361.63 188.822 361.43C189.744 361.189 190.646 361.069 191.528 361.069C193.974 361.069 196.098 361.51 197.902 362.392C199.746 363.234 201.27 364.417 202.472 365.94C203.675 367.423 204.577 369.167 205.178 371.172C205.78 373.176 206.08 375.321 206.08 377.606C206.08 379.69 205.8 381.715 205.238 383.679C204.717 385.644 203.896 387.388 202.773 388.911C201.691 390.394 200.308 391.597 198.624 392.519C196.94 393.401 194.956 393.842 192.671 393.842C191.628 393.842 190.566 393.762 189.484 393.601C188.441 393.481 187.439 393.22 186.477 392.82C185.515 392.419 184.633 391.898 183.831 391.256C183.069 390.615 182.428 389.773 181.907 388.731H181.786V393H175.292V350.065ZM199.225 377.486C199.225 376.082 199.045 374.719 198.684 373.397C198.323 372.074 197.782 370.911 197.06 369.909C196.339 368.866 195.437 368.045 194.354 367.443C193.272 366.802 192.029 366.481 190.626 366.481C187.74 366.481 185.555 367.483 184.072 369.488C182.628 371.492 181.907 374.158 181.907 377.486C181.907 379.049 182.087 380.512 182.448 381.875C182.849 383.198 183.43 384.341 184.192 385.303C184.954 386.265 185.856 387.027 186.898 387.588C187.98 388.149 189.223 388.43 190.626 388.43C192.19 388.43 193.512 388.109 194.595 387.468C195.677 386.826 196.559 386.004 197.241 385.002C197.962 383.96 198.463 382.797 198.744 381.515C199.065 380.192 199.225 378.849 199.225 377.486Z" fill="black"/>
<path d="M230.815 374.719C230.735 373.637 230.494 372.595 230.093 371.593C229.732 370.59 229.211 369.728 228.53 369.007C227.888 368.245 227.087 367.644 226.124 367.203C225.202 366.722 224.16 366.481 222.998 366.481C221.795 366.481 220.692 366.702 219.69 367.143C218.728 367.544 217.886 368.125 217.165 368.887C216.483 369.608 215.922 370.47 215.481 371.472C215.08 372.474 214.86 373.557 214.819 374.719H230.815ZM214.819 379.229C214.819 380.432 214.98 381.595 215.3 382.717C215.661 383.84 216.182 384.822 216.864 385.664C217.545 386.506 218.407 387.187 219.45 387.708C220.492 388.189 221.735 388.43 223.178 388.43C225.182 388.43 226.786 388.009 227.989 387.167C229.231 386.285 230.153 384.982 230.755 383.258H237.249C236.888 384.942 236.267 386.445 235.385 387.768C234.503 389.091 233.441 390.214 232.198 391.136C230.955 392.018 229.552 392.679 227.989 393.12C226.465 393.601 224.862 393.842 223.178 393.842C220.733 393.842 218.568 393.441 216.684 392.639C214.799 391.837 213.196 390.715 211.873 389.272C210.59 387.829 209.608 386.105 208.926 384.1C208.285 382.096 207.964 379.891 207.964 377.486C207.964 375.281 208.305 373.196 208.986 371.232C209.708 369.227 210.71 367.483 211.993 366C213.316 364.477 214.9 363.274 216.744 362.392C218.588 361.51 220.672 361.069 222.998 361.069C225.443 361.069 227.628 361.59 229.552 362.633C231.516 363.635 233.14 364.978 234.423 366.662C235.706 368.345 236.628 370.29 237.189 372.495C237.79 374.659 237.951 376.904 237.67 379.229H214.819Z" fill="black"/>
<path d="M240.476 361.911H246.91V367.924H247.031C247.231 367.083 247.612 366.261 248.173 365.459C248.775 364.657 249.476 363.936 250.278 363.294C251.12 362.613 252.042 362.071 253.044 361.671C254.046 361.27 255.069 361.069 256.111 361.069C256.913 361.069 257.454 361.089 257.734 361.129C258.055 361.169 258.376 361.21 258.697 361.25V367.864C258.215 367.784 257.714 367.724 257.193 367.684C256.712 367.604 256.231 367.564 255.75 367.564C254.587 367.564 253.485 367.804 252.443 368.285C251.44 368.726 250.559 369.408 249.797 370.33C249.035 371.212 248.434 372.314 247.993 373.637C247.552 374.96 247.331 376.483 247.331 378.207V393H240.476V361.911Z" fill="black"/>
<path d="M256.145 361.911H261.256V359.325C261.256 357.361 261.497 355.777 261.978 354.575C262.459 353.332 263.1 352.39 263.902 351.749C264.704 351.067 265.606 350.626 266.608 350.426C267.65 350.185 268.733 350.065 269.855 350.065C272.06 350.065 273.663 350.205 274.666 350.486V355.838C274.225 355.717 273.744 355.637 273.223 355.597C272.741 355.517 272.16 355.477 271.479 355.477C270.557 355.477 269.755 355.697 269.073 356.138C268.432 356.579 268.111 357.441 268.111 358.724V361.911H273.944V367.022H268.111V393H261.256V367.022H256.145V361.911Z" fill="black"/>
<path d="M297.121 374.719C297.041 373.637 296.801 372.595 296.4 371.593C296.039 370.59 295.518 369.728 294.836 369.007C294.195 368.245 293.393 367.644 292.431 367.203C291.509 366.722 290.467 366.481 289.304 366.481C288.101 366.481 286.999 366.702 285.997 367.143C285.034 367.544 284.193 368.125 283.471 368.887C282.789 369.608 282.228 370.47 281.787 371.472C281.386 372.474 281.166 373.557 281.126 374.719H297.121ZM281.126 379.229C281.126 380.432 281.286 381.595 281.607 382.717C281.968 383.84 282.489 384.822 283.17 385.664C283.852 386.506 284.714 387.187 285.756 387.708C286.798 388.189 288.041 388.43 289.484 388.43C291.489 388.43 293.092 388.009 294.295 387.167C295.538 386.285 296.46 384.982 297.061 383.258H303.556C303.195 384.942 302.573 386.445 301.691 387.768C300.809 389.091 299.747 390.214 298.504 391.136C297.262 392.018 295.858 392.679 294.295 393.12C292.772 393.601 291.168 393.842 289.484 393.842C287.039 393.842 284.874 393.441 282.99 392.639C281.106 391.837 279.502 390.715 278.179 389.272C276.896 387.829 275.914 386.105 275.233 384.1C274.591 382.096 274.271 379.891 274.271 377.486C274.271 375.281 274.611 373.196 275.293 371.232C276.014 369.227 277.017 367.483 278.3 366C279.622 364.477 281.206 363.274 283.05 362.392C284.894 361.51 286.979 361.069 289.304 361.069C291.749 361.069 293.934 361.59 295.858 362.633C297.823 363.635 299.446 364.978 300.729 366.662C302.012 368.345 302.934 370.29 303.495 372.495C304.097 374.659 304.257 376.904 303.977 379.229H281.126Z" fill="black"/>
<path d="M311.954 383.018C312.154 385.022 312.916 386.425 314.239 387.227C315.562 388.029 317.146 388.43 318.99 388.43C319.631 388.43 320.353 388.39 321.154 388.31C321.996 388.189 322.778 387.989 323.5 387.708C324.221 387.428 324.803 387.027 325.243 386.506C325.725 385.944 325.945 385.223 325.905 384.341C325.865 383.459 325.544 382.737 324.943 382.176C324.342 381.615 323.56 381.174 322.598 380.853C321.676 380.492 320.613 380.192 319.411 379.951C318.208 379.711 316.985 379.45 315.742 379.169C314.46 378.889 313.217 378.548 312.014 378.147C310.852 377.746 309.789 377.205 308.827 376.523C307.905 375.842 307.163 374.98 306.602 373.938C306.041 372.855 305.76 371.532 305.76 369.969C305.76 368.285 306.161 366.882 306.963 365.76C307.805 364.597 308.847 363.675 310.09 362.993C311.373 362.272 312.776 361.771 314.299 361.49C315.863 361.21 317.346 361.069 318.749 361.069C320.353 361.069 321.876 361.25 323.319 361.61C324.803 361.931 326.125 362.472 327.288 363.234C328.491 363.996 329.473 364.998 330.235 366.241C331.036 367.443 331.537 368.907 331.738 370.63H324.582C324.261 368.987 323.5 367.884 322.297 367.323C321.134 366.762 319.791 366.481 318.268 366.481C317.787 366.481 317.206 366.521 316.524 366.601C315.883 366.682 315.261 366.842 314.66 367.083C314.099 367.283 313.618 367.604 313.217 368.045C312.816 368.446 312.616 368.987 312.616 369.668C312.616 370.51 312.896 371.192 313.457 371.713C314.059 372.234 314.82 372.675 315.742 373.036C316.705 373.356 317.787 373.637 318.99 373.878C320.192 374.118 321.435 374.379 322.718 374.659C323.961 374.94 325.183 375.281 326.386 375.682C327.589 376.082 328.651 376.624 329.573 377.305C330.535 377.987 331.297 378.849 331.858 379.891C332.459 380.933 332.76 382.216 332.76 383.739C332.76 385.584 332.339 387.147 331.497 388.43C330.656 389.713 329.553 390.755 328.19 391.557C326.867 392.359 325.384 392.94 323.74 393.301C322.097 393.661 320.473 393.842 318.869 393.842C316.905 393.842 315.081 393.621 313.397 393.18C311.754 392.739 310.31 392.078 309.068 391.196C307.865 390.274 306.903 389.151 306.181 387.829C305.5 386.465 305.139 384.862 305.099 383.018H311.954Z" fill="black"/>
<path d="M332.433 361.911H337.604V352.59H344.459V361.911H350.653V367.022H344.459V383.619C344.459 384.341 344.479 384.962 344.52 385.483C344.6 386.004 344.74 386.445 344.94 386.806C345.181 387.167 345.522 387.448 345.963 387.648C346.404 387.808 347.005 387.889 347.767 387.889C348.248 387.889 348.729 387.889 349.21 387.889C349.691 387.849 350.172 387.768 350.653 387.648V392.94C349.891 393.02 349.15 393.1 348.428 393.18C347.707 393.261 346.965 393.301 346.203 393.301C344.399 393.301 342.936 393.14 341.814 392.82C340.731 392.459 339.869 391.958 339.228 391.316C338.626 390.635 338.206 389.793 337.965 388.791C337.765 387.788 337.644 386.646 337.604 385.363V367.022H332.433V361.911Z" fill="black"/>
<path d="M352.518 373.397H370.017V379.891H352.518V373.397Z" fill="black"/>
<path d="M396.576 377.486C396.576 378.768 396.435 380.011 396.155 381.214C395.874 382.417 395.433 383.479 394.832 384.401C394.23 385.323 393.469 386.065 392.547 386.626C391.665 387.147 390.582 387.408 389.3 387.408C388.057 387.408 386.974 387.147 386.052 386.626C385.13 386.065 384.369 385.323 383.767 384.401C383.166 383.479 382.725 382.417 382.444 381.214C382.164 380.011 382.023 378.768 382.023 377.486C382.023 376.163 382.164 374.9 382.444 373.697C382.725 372.495 383.166 371.432 383.767 370.51C384.369 369.588 385.13 368.866 386.052 368.345C386.974 367.784 388.057 367.503 389.3 367.503C390.582 367.503 391.665 367.784 392.547 368.345C393.469 368.866 394.23 369.588 394.832 370.51C395.433 371.432 395.874 372.495 396.155 373.697C396.435 374.9 396.576 376.163 396.576 377.486ZM373.785 350.065V393H381.903V389.031H382.023C382.945 390.755 384.308 391.978 386.112 392.699C387.916 393.421 389.961 393.782 392.246 393.782C393.81 393.782 395.353 393.461 396.876 392.82C398.4 392.178 399.763 391.196 400.965 389.873C402.208 388.55 403.21 386.866 403.972 384.822C404.734 382.737 405.115 380.272 405.115 377.425C405.115 374.579 404.734 372.134 403.972 370.089C403.21 368.005 402.208 366.301 400.965 364.978C399.763 363.655 398.4 362.673 396.876 362.031C395.353 361.39 393.81 361.069 392.246 361.069C390.322 361.069 388.458 361.45 386.654 362.212C384.89 362.933 383.487 364.096 382.444 365.699H382.324V350.065H373.785Z" fill="black"/>
<path d="M415.718 377.486C415.718 376.243 415.838 375.02 416.079 373.817C416.319 372.615 416.72 371.552 417.281 370.63C417.883 369.708 418.664 368.967 419.627 368.405C420.589 367.804 421.791 367.503 423.235 367.503C424.678 367.503 425.88 367.804 426.843 368.405C427.845 368.967 428.626 369.708 429.188 370.63C429.789 371.552 430.21 372.615 430.451 373.817C430.691 375.02 430.811 376.243 430.811 377.486C430.811 378.728 430.691 379.951 430.451 381.154C430.21 382.316 429.789 383.379 429.188 384.341C428.626 385.263 427.845 386.004 426.843 386.566C425.88 387.127 424.678 387.408 423.235 387.408C421.791 387.408 420.589 387.127 419.627 386.566C418.664 386.004 417.883 385.263 417.281 384.341C416.72 383.379 416.319 382.316 416.079 381.154C415.838 379.951 415.718 378.728 415.718 377.486ZM407.179 377.486C407.179 379.971 407.56 382.216 408.321 384.221C409.083 386.225 410.166 387.949 411.569 389.392C412.972 390.795 414.656 391.878 416.62 392.639C418.584 393.401 420.789 393.782 423.235 393.782C425.68 393.782 427.885 393.401 429.849 392.639C431.854 391.878 433.557 390.795 434.961 389.392C436.364 387.949 437.446 386.225 438.208 384.221C438.969 382.216 439.35 379.971 439.35 377.486C439.35 375 438.969 372.755 438.208 370.751C437.446 368.706 436.364 366.982 434.961 365.579C433.557 364.136 431.854 363.034 429.849 362.272C427.885 361.47 425.68 361.069 423.235 361.069C420.789 361.069 418.584 361.47 416.62 362.272C414.656 363.034 412.972 364.136 411.569 365.579C410.166 366.982 409.083 368.706 408.321 370.751C407.56 372.755 407.179 375 407.179 377.486Z" fill="black"/>
<path d="M453.321 361.911V352.59H444.782V361.911H439.611V367.624H444.782V385.964C444.782 387.528 445.043 388.791 445.564 389.753C446.085 390.715 446.786 391.457 447.668 391.978C448.59 392.499 449.633 392.84 450.795 393C451.998 393.2 453.261 393.301 454.584 393.301C455.426 393.301 456.287 393.281 457.169 393.241C458.051 393.2 458.853 393.12 459.575 393V386.385C459.174 386.466 458.753 386.526 458.312 386.566C457.871 386.606 457.41 386.626 456.929 386.626C455.486 386.626 454.524 386.385 454.042 385.904C453.561 385.423 453.321 384.461 453.321 383.018V367.624H459.575V361.911H453.321Z" fill="black"/>
</svg>
